Coordinates
version=1
nRows=5
nColumns=40
inDegrees=yes

Units are S.I. units (second, meters, Newtons, ...)
Angles are in degrees.

endheader
time	pelvis_tilt	pelvis_list	pelvis_rotation	pelvis_tx	pelvis_ty	pelvis_tz	hip_flexion_r	hip_adduction_r	hip_rotation_r	knee_angle_r	knee_angle_r_beta	ankle_angle_r	subtalar_angle_r	mtp_angle_r	hip_flexion_l	hip_adduction_l	hip_rotation_l	knee_angle_l	knee_angle_l_beta	ankle_angle_l	subtalar_angle_l	mtp_angle_l	lumbar_extension	lumbar_bending	lumbar_rotation	arm_flex_r	arm_add_r	arm_rot_r	elbow_flex_r	pro_sup_r	wrist_flex_r	wrist_dev_r	arm_flex_l	arm_add_l	arm_rot_l	elbow_flex_l	pro_sup_l	wrist_flex_l	wrist_dev_l
     38.98128571	     -2.94933102	     -5.94957587	     -1.80986030	      1.06221173	      0.93614379	      0.38560768	     31.54080990	     -4.89731016	     -4.99875914	     48.62448809	     48.62448809	      0.55236342	    -10.42281588	     -1.73742925	     11.15446089	     -7.07520275	     -9.84373874	     20.17052195	     20.17052195	     13.19808914	     -9.56365952	     -3.04058370	    -11.33525523	      4.98620629	      1.09791039	     -1.07409978	    -13.13796298	     -4.32272720	     28.37338172	     46.50723789	      0.00000000	      0.00000000	     17.96765938	    -17.01094364	     -7.43762575	     58.87532009	     46.57813630	      0.00000000	      0.00000000
     38.99507143	     -3.15231405	     -6.07570304	     -2.32369894	      1.06081809	      0.93604077	      0.38642028	     31.67434986	     -4.50583832	     -5.07510795	     45.22125861	     45.22125861	      0.70901721	     -9.23331670	     -1.64218984	     10.84930945	     -7.24146075	    -10.09653631	     19.92457032	     19.92457032	     13.33157127	     -9.82148368	     -3.03201415	    -11.34438531	      5.14768002	      1.29231173	     -2.24974140	    -13.43476680	     -4.50011145	     27.84256999	     46.53082396	      0.00000000	      0.00000000	     18.32400841	    -17.14548392	     -7.81049341	     60.21916907	     46.63556541	      0.00000000	      0.00000000
     39.00885714	     -3.35872067	     -6.06786827	     -2.85071665	      1.05947752	      0.93575792	      0.38735197	     31.63209603	     -4.23635664	     -5.20791974	     41.46102946	     41.46102946	      0.50033394	     -7.93189109	     -2.81425565	     10.52721468	     -7.24773098	    -10.31250289	     19.63403414	     19.63403414	     13.32333643	    -10.28355725	     -3.24848612	    -11.47664070	      5.08881144	      0.93187303	     -3.06775832	    -13.48674834	     -5.70315729	     27.76610510	     46.60303965	      0.00000000	      0.00000000	     17.04312718	    -17.51566480	     -9.48136069	     65.15612987	     46.86301406	      0.00000000	      0.00000000
     39.02264286	     -3.60808131	     -6.08689178	     -3.36794820	      1.05818600	      0.93537737	      0.38841442	     31.45474487	     -3.92010236	     -5.50613134	     37.44369734	     37.44369734	      0.39254665	     -6.30915240	     -3.40719739	     10.26974033	     -7.31392960	    -10.60924750	     19.39153739	     19.39153739	     13.38745344	    -10.59164695	     -3.42949802	    -11.51005127	      5.09724563	      0.86330374	     -3.81060199	    -13.59131016	     -6.50932075	     27.21266254	     46.66497197	      0.00000000	      0.00000000	     16.52433281	    -17.60614298	    -10.73267123	     68.27018977	     47.03937229	      0.00000000	      0.00000000
     39.03642857	     -3.96517698	     -6.13664159	     -3.84543839	      1.05698106	      0.93482966	      0.38965526	     31.20729120	     -3.49085625	     -5.85213086	     33.24260849	     33.24260849	      0.45334964	     -4.62151120	     -2.91102617	     10.15770869	     -7.43793347	    -10.86332971	     19.21156330	     19.21156330	     13.54455132	    -10.79508259	     -3.47304714	    -11.31335639	      5.19786693	      1.14315230	     -4.75023582	    -13.75909757	     -6.61780955	     26.82733456	     46.67940158	      0.00000000	      0.00000000	     16.77831073	    -17.62685248	    -10.99320277	     69.45310524	     47.08385407	      0.00000000	      0.00000000
